<?xml version="1.0" encoding="UTF-8"?>
<svg xmlns="http://www.w3.org/2000/svg" version="1.1" width="300" height="300" viewBox="0 0 300 300"><rect x="0" y="0" width="300" height="300" fill="#ffffff"/><g transform="scale(12)"><g transform="translate(0,0)"><g><g transform="translate(3.5,3.5)"><path fill-rule="evenodd" d="M-3.5 -3.5L3.5 -3.5L3.5 3.5L-3.5 3.5ZM-2.5 -2.5L-2.5 2.5L2.5 2.5L2.5 -2.5Z" fill="#000000"/><path fill-rule="evenodd" d="M-1.5 -1.5L1.5 -1.5L1.5 1.5L-1.5 1.5Z" fill="#000000"/></g></g><g><g transform="translate(21.5,3.5)"><g transform="rotate(90)"><path fill-rule="evenodd" d="M-3.5 -3.5L3.5 -3.5L3.5 3.5L-3.5 3.5ZM-2.5 -2.5L-2.5 2.5L2.5 2.5L2.5 -2.5Z" fill="#000000"/><path fill-rule="evenodd" d="M-1.5 -1.5L1.5 -1.5L1.5 1.5L-1.5 1.5Z" fill="#000000"/></g></g></g><g><g transform="translate(3.5,21.5)"><g transform="rotate(-90)"><path fill-rule="evenodd" d="M-3.5 -3.5L3.5 -3.5L3.5 3.5L-3.5 3.5ZM-2.5 -2.5L-2.5 2.5L2.5 2.5L2.5 -2.5Z" fill="#000000"/><path fill-rule="evenodd" d="M-1.5 -1.5L1.5 -1.5L1.5 1.5L-1.5 1.5Z" fill="#000000"/></g></g></g><path fill-rule="evenodd" d="M8 0L8 2L9 2L9 3L8 3L8 4L9 4L9 6L8 6L8 8L5 8L5 9L8 9L8 8L9 8L9 11L8 11L8 10L4 10L4 8L2 8L2 9L3 9L3 10L2 10L2 11L3 11L3 12L4 12L4 11L8 11L8 12L6 12L6 13L5 13L5 15L4 15L4 17L5 17L5 16L6 16L6 17L7 17L7 16L10 16L10 17L11 17L11 16L12 16L12 14L13 14L13 16L14 16L14 17L13 17L13 18L12 18L12 19L11 19L11 18L10 18L10 19L9 19L9 17L8 17L8 20L9 20L9 21L8 21L8 23L9 23L9 24L8 24L8 25L10 25L10 23L11 23L11 24L12 24L12 25L13 25L13 23L14 23L14 24L15 24L15 23L14 23L14 22L17 22L17 23L16 23L16 25L17 25L17 24L18 24L18 23L19 23L19 21L20 21L20 22L21 22L21 23L20 23L20 24L21 24L21 23L22 23L22 25L25 25L25 23L24 23L24 22L25 22L25 18L23 18L23 17L24 17L24 16L25 16L25 15L24 15L24 14L25 14L25 8L23 8L23 9L24 9L24 10L21 10L21 9L22 9L22 8L21 8L21 9L19 9L19 8L18 8L18 9L17 9L17 8L16 8L16 7L17 7L17 4L16 4L16 2L17 2L17 0L15 0L15 1L16 1L16 2L15 2L15 4L14 4L14 5L15 5L15 6L14 6L14 7L13 7L13 4L12 4L12 5L11 5L11 2L14 2L14 1L13 1L13 0ZM9 1L9 2L11 2L11 1ZM9 3L9 4L10 4L10 3ZM10 5L10 6L9 6L9 7L10 7L10 6L11 6L11 8L12 8L12 9L13 9L13 12L14 12L14 13L13 13L13 14L14 14L14 13L15 13L15 14L18 14L18 16L21 16L21 17L23 17L23 14L24 14L24 13L23 13L23 12L24 12L24 11L23 11L23 12L22 12L22 15L19 15L19 13L15 13L15 10L16 10L16 12L17 12L17 11L20 11L20 12L21 12L21 10L19 10L19 9L18 9L18 10L16 10L16 8L15 8L15 10L14 10L14 8L12 8L12 6L11 6L11 5ZM15 6L15 7L16 7L16 6ZM0 8L0 9L1 9L1 8ZM0 10L0 13L1 13L1 15L0 15L0 16L1 16L1 15L2 15L2 14L3 14L3 13L1 13L1 10ZM11 10L11 11L9 11L9 12L8 12L8 13L10 13L10 14L11 14L11 11L12 11L12 10ZM6 13L6 14L7 14L7 15L6 15L6 16L7 16L7 15L9 15L9 14L7 14L7 13ZM20 13L20 14L21 14L21 13ZM14 15L14 16L15 16L15 19L14 19L14 21L13 21L13 19L12 19L12 20L10 20L10 22L11 22L11 23L13 23L13 22L14 22L14 21L15 21L15 19L16 19L16 15ZM2 16L2 17L3 17L3 16ZM17 17L17 20L20 20L20 17ZM18 18L18 19L19 19L19 18ZM21 18L21 22L23 22L23 21L24 21L24 20L23 20L23 19L22 19L22 18ZM22 20L22 21L23 21L23 20ZM17 21L17 22L18 22L18 21Z" fill="#000000"/></g></g></svg>
